<?xml version="1.0" encoding="UTF-8"?>
<svg xmlns="http://www.w3.org/2000/svg" width="544" height="492" viewBox="0 0 544 492">
<rect x="0" y="0" width="544" height="492" rx="0" fill="#f6f6f6" stroke="none"/>
<rect x="12" y="12" width="520" height="458" rx="3" fill="#797979" stroke="none"/>
<rect x="13" y="13" width="518" height="28" rx="3" fill="#ffffff" stroke="none"/>
<text x="20" y="30" fill="#000000" text-anchor="start" font-family="Arial, Helvetica, sans-serif" font-size="12">cFos HTTP Zähler 4fach 1.0</text>
<text x="524" y="30" fill="#707070" text-anchor="end" font-family="Arial, Helvetica, sans-serif" font-size="10">19100821</text>
<rect x="470" y="17" width="35" height="16" rx="2" fill="#ff8000" stroke="none"/>
<text x="488" y="29" fill="#000000" text-anchor="middle" font-family="Arial, Helvetica, sans-serif" font-size="9">EXEC</text>
<rect x="13" y="40" width="518" height="21" rx="0" fill="#303030" stroke="none"/>
<text x="16" y="55" fill="#a0a0a0" text-anchor="start" font-family="Arial, Helvetica, sans-serif" font-size="10">&gt; E1</text>
<text x="72" y="55" fill="#ffffff" text-anchor="start" font-family="Arial, Helvetica, sans-serif" font-size="10">IP/Host (z.B. 10.77.77.4)</text>
<rect x="287" y="40" width="54" height="21" rx="0" fill="#303030" stroke="#505050"/>
<text x="314" y="55" fill="#b0ff00" text-anchor="middle" font-family="Arial, Helvetica, sans-serif" font-size="10"></text>
<text x="472" y="55" fill="#ffffff" text-anchor="end" font-family="Arial, Helvetica, sans-serif" font-size="10">OK gesamt 1/0</text>
<text x="528" y="55" fill="#d0d0d0" text-anchor="end" font-family="Arial, Helvetica, sans-serif" font-size="10">A1 &gt;</text>
<rect x="13" y="62" width="518" height="21" rx="0" fill="#303030" stroke="none"/>
<text x="16" y="77" fill="#a0a0a0" text-anchor="start" font-family="Arial, Helvetica, sans-serif" font-size="10">&gt; E2</text>
<text x="72" y="77" fill="#ffffff" text-anchor="start" font-family="Arial, Helvetica, sans-serif" font-size="10">User</text>
<rect x="287" y="62" width="54" height="21" rx="0" fill="#303030" stroke="#505050"/>
<text x="314" y="77" fill="#b0ff00" text-anchor="middle" font-family="Arial, Helvetica, sans-serif" font-size="10"></text>
<text x="472" y="77" fill="#ffffff" text-anchor="end" font-family="Arial, Helvetica, sans-serif" font-size="10">Fehlertext gesamt</text>
<text x="528" y="77" fill="#d0d0d0" text-anchor="end" font-family="Arial, Helvetica, sans-serif" font-size="10">A2 &gt;</text>
<rect x="13" y="84" width="518" height="21" rx="0" fill="#303030" stroke="none"/>
<text x="16" y="99" fill="#a0a0a0" text-anchor="start" font-family="Arial, Helvetica, sans-serif" font-size="10">&gt; E3</text>
<text x="72" y="99" fill="#ffffff" text-anchor="start" font-family="Arial, Helvetica, sans-serif" font-size="10">Passwort</text>
<rect x="287" y="84" width="54" height="21" rx="0" fill="#303030" stroke="#505050"/>
<text x="314" y="99" fill="#b0ff00" text-anchor="middle" font-family="Arial, Helvetica, sans-serif" font-size="10"></text>
<text x="472" y="99" fill="#ffffff" text-anchor="end" font-family="Arial, Helvetica, sans-serif" font-size="10">HTTP1</text>
<text x="528" y="99" fill="#d0d0d0" text-anchor="end" font-family="Arial, Helvetica, sans-serif" font-size="10">A3 &gt;</text>
<rect x="13" y="106" width="518" height="21" rx="0" fill="#303030" stroke="none"/>
<text x="16" y="121" fill="#a0a0a0" text-anchor="start" font-family="Arial, Helvetica, sans-serif" font-size="10">&gt; E4</text>
<text x="72" y="121" fill="#ffffff" text-anchor="start" font-family="Arial, Helvetica, sans-serif" font-size="10">ID1 (z.B. M4)</text>
<rect x="287" y="106" width="54" height="21" rx="0" fill="#303030" stroke="#505050"/>
<text x="314" y="121" fill="#b0ff00" text-anchor="middle" font-family="Arial, Helvetica, sans-serif" font-size="10"></text>
<text x="472" y="121" fill="#ffffff" text-anchor="end" font-family="Arial, Helvetica, sans-serif" font-size="10">HTTP2</text>
<text x="528" y="121" fill="#d0d0d0" text-anchor="end" font-family="Arial, Helvetica, sans-serif" font-size="10">A4 &gt;</text>
<rect x="13" y="128" width="518" height="21" rx="0" fill="#303030" stroke="none"/>
<text x="16" y="143" fill="#a0a0a0" text-anchor="start" font-family="Arial, Helvetica, sans-serif" font-size="10">&gt; E5</text>
<text x="72" y="143" fill="#ffffff" text-anchor="start" font-family="Arial, Helvetica, sans-serif" font-size="10">Model1</text>
<rect x="287" y="128" width="54" height="21" rx="0" fill="#303030" stroke="#505050"/>
<text x="314" y="143" fill="#b0ff00" text-anchor="middle" font-family="Arial, Helvetica, sans-serif" font-size="10"></text>
<text x="472" y="143" fill="#ffffff" text-anchor="end" font-family="Arial, Helvetica, sans-serif" font-size="10">HTTP3</text>
<text x="528" y="143" fill="#d0d0d0" text-anchor="end" font-family="Arial, Helvetica, sans-serif" font-size="10">A5 &gt;</text>
<rect x="13" y="150" width="518" height="21" rx="0" fill="#303030" stroke="none"/>
<text x="16" y="165" fill="#80e000" text-anchor="start" font-family="Arial, Helvetica, sans-serif" font-size="10">&gt; E6</text>
<text x="72" y="165" fill="#ffffff" text-anchor="start" font-family="Arial, Helvetica, sans-serif" font-size="10">power_w1</text>
<rect x="287" y="150" width="54" height="21" rx="0" fill="#303030" stroke="#505050"/>
<text x="314" y="165" fill="#b0ff00" text-anchor="middle" font-family="Arial, Helvetica, sans-serif" font-size="10"></text>
<text x="472" y="165" fill="#ffffff" text-anchor="end" font-family="Arial, Helvetica, sans-serif" font-size="10">HTTP4</text>
<text x="528" y="165" fill="#d0d0d0" text-anchor="end" font-family="Arial, Helvetica, sans-serif" font-size="10">A6 &gt;</text>
<rect x="13" y="172" width="518" height="21" rx="0" fill="#303030" stroke="none"/>
<text x="16" y="187" fill="#a0a0a0" text-anchor="start" font-family="Arial, Helvetica, sans-serif" font-size="10">&gt; E7</text>
<text x="72" y="187" fill="#ffffff" text-anchor="start" font-family="Arial, Helvetica, sans-serif" font-size="10">ID2</text>
<rect x="287" y="172" width="54" height="21" rx="0" fill="#303030" stroke="#505050"/>
<text x="314" y="187" fill="#b0ff00" text-anchor="middle" font-family="Arial, Helvetica, sans-serif" font-size="10"></text>
<text x="472" y="187" fill="#ffffff" text-anchor="end" font-family="Arial, Helvetica, sans-serif" font-size="10">JSON1</text>
<text x="528" y="187" fill="#d0d0d0" text-anchor="end" font-family="Arial, Helvetica, sans-serif" font-size="10">A7 &gt;</text>
<rect x="13" y="194" width="518" height="21" rx="0" fill="#303030" stroke="none"/>
<text x="16" y="209" fill="#a0a0a0" text-anchor="start" font-family="Arial, Helvetica, sans-serif" font-size="10">&gt; E8</text>
<text x="72" y="209" fill="#ffffff" text-anchor="start" font-family="Arial, Helvetica, sans-serif" font-size="10">Model2</text>
<rect x="287" y="194" width="54" height="21" rx="0" fill="#303030" stroke="#505050"/>
<text x="314" y="209" fill="#b0ff00" text-anchor="middle" font-family="Arial, Helvetica, sans-serif" font-size="10"></text>
<text x="472" y="209" fill="#ffffff" text-anchor="end" font-family="Arial, Helvetica, sans-serif" font-size="10">JSON2</text>
<text x="528" y="209" fill="#d0d0d0" text-anchor="end" font-family="Arial, Helvetica, sans-serif" font-size="10">A8 &gt;</text>
<rect x="13" y="216" width="518" height="21" rx="0" fill="#303030" stroke="none"/>
<text x="16" y="231" fill="#80e000" text-anchor="start" font-family="Arial, Helvetica, sans-serif" font-size="10">&gt; E9</text>
<text x="72" y="231" fill="#ffffff" text-anchor="start" font-family="Arial, Helvetica, sans-serif" font-size="10">power_w2</text>
<rect x="287" y="216" width="54" height="21" rx="0" fill="#303030" stroke="#505050"/>
<text x="314" y="231" fill="#b0ff00" text-anchor="middle" font-family="Arial, Helvetica, sans-serif" font-size="10"></text>
<text x="472" y="231" fill="#ffffff" text-anchor="end" font-family="Arial, Helvetica, sans-serif" font-size="10">JSON3</text>
<text x="528" y="231" fill="#d0d0d0" text-anchor="end" font-family="Arial, Helvetica, sans-serif" font-size="10">A9 &gt;</text>
<rect x="13" y="238" width="518" height="21" rx="0" fill="#303030" stroke="none"/>
<text x="16" y="253" fill="#a0a0a0" text-anchor="start" font-family="Arial, Helvetica, sans-serif" font-size="10">&gt; E10</text>
<text x="72" y="253" fill="#ffffff" text-anchor="start" font-family="Arial, Helvetica, sans-serif" font-size="10">ID3</text>
<rect x="287" y="238" width="54" height="21" rx="0" fill="#303030" stroke="#505050"/>
<text x="314" y="253" fill="#b0ff00" text-anchor="middle" font-family="Arial, Helvetica, sans-serif" font-size="10"></text>
<text x="472" y="253" fill="#ffffff" text-anchor="end" font-family="Arial, Helvetica, sans-serif" font-size="10">JSON4</text>
<text x="528" y="253" fill="#d0d0d0" text-anchor="end" font-family="Arial, Helvetica, sans-serif" font-size="10">A10 &gt;</text>
<rect x="13" y="260" width="518" height="21" rx="0" fill="#303030" stroke="none"/>
<text x="16" y="275" fill="#a0a0a0" text-anchor="start" font-family="Arial, Helvetica, sans-serif" font-size="10">&gt; E11</text>
<text x="72" y="275" fill="#ffffff" text-anchor="start" font-family="Arial, Helvetica, sans-serif" font-size="10">Model3</text>
<rect x="287" y="260" width="54" height="21" rx="0" fill="#303030" stroke="#505050"/>
<text x="314" y="275" fill="#b0ff00" text-anchor="middle" font-family="Arial, Helvetica, sans-serif" font-size="10"></text>
<text x="472" y="275" fill="#ffffff" text-anchor="end" font-family="Arial, Helvetica, sans-serif" font-size="10">Status Text</text>
<text x="528" y="275" fill="#d0d0d0" text-anchor="end" font-family="Arial, Helvetica, sans-serif" font-size="10">A11 &gt;</text>
<rect x="13" y="282" width="518" height="21" rx="0" fill="#303030" stroke="none"/>
<text x="16" y="297" fill="#80e000" text-anchor="start" font-family="Arial, Helvetica, sans-serif" font-size="10">&gt; E12</text>
<text x="72" y="297" fill="#ffffff" text-anchor="start" font-family="Arial, Helvetica, sans-serif" font-size="10">power_w3</text>
<rect x="287" y="282" width="54" height="21" rx="0" fill="#303030" stroke="#505050"/>
<text x="314" y="297" fill="#b0ff00" text-anchor="middle" font-family="Arial, Helvetica, sans-serif" font-size="10"></text>
<text x="472" y="297" fill="#ffffff" text-anchor="end" font-family="Arial, Helvetica, sans-serif" font-size="10">Versandart</text>
<text x="528" y="297" fill="#d0d0d0" text-anchor="end" font-family="Arial, Helvetica, sans-serif" font-size="10">A12 &gt;</text>
<rect x="13" y="304" width="518" height="21" rx="0" fill="#303030" stroke="none"/>
<text x="16" y="319" fill="#a0a0a0" text-anchor="start" font-family="Arial, Helvetica, sans-serif" font-size="10">&gt; E13</text>
<text x="72" y="319" fill="#ffffff" text-anchor="start" font-family="Arial, Helvetica, sans-serif" font-size="10">ID4</text>
<rect x="287" y="304" width="54" height="21" rx="0" fill="#303030" stroke="#505050"/>
<text x="314" y="319" fill="#b0ff00" text-anchor="middle" font-family="Arial, Helvetica, sans-serif" font-size="10"></text>
<text x="472" y="319" fill="#ffffff" text-anchor="end" font-family="Arial, Helvetica, sans-serif" font-size="10">Zeitstempel</text>
<text x="528" y="319" fill="#d0d0d0" text-anchor="end" font-family="Arial, Helvetica, sans-serif" font-size="10">A13 &gt;</text>
<rect x="13" y="326" width="518" height="21" rx="0" fill="#303030" stroke="none"/>
<text x="16" y="341" fill="#a0a0a0" text-anchor="start" font-family="Arial, Helvetica, sans-serif" font-size="10">&gt; E14</text>
<text x="72" y="341" fill="#ffffff" text-anchor="start" font-family="Arial, Helvetica, sans-serif" font-size="10">Model4</text>
<rect x="287" y="326" width="54" height="21" rx="0" fill="#303030" stroke="#505050"/>
<text x="314" y="341" fill="#b0ff00" text-anchor="middle" font-family="Arial, Helvetica, sans-serif" font-size="10"></text>
<rect x="13" y="348" width="518" height="21" rx="0" fill="#303030" stroke="none"/>
<text x="16" y="363" fill="#80e000" text-anchor="start" font-family="Arial, Helvetica, sans-serif" font-size="10">&gt; E15</text>
<text x="72" y="363" fill="#ffffff" text-anchor="start" font-family="Arial, Helvetica, sans-serif" font-size="10">power_w4</text>
<rect x="287" y="348" width="54" height="21" rx="0" fill="#303030" stroke="#505050"/>
<text x="314" y="363" fill="#b0ff00" text-anchor="middle" font-family="Arial, Helvetica, sans-serif" font-size="10"></text>
<rect x="13" y="370" width="518" height="21" rx="0" fill="#303030" stroke="none"/>
<text x="16" y="385" fill="#a0a0a0" text-anchor="start" font-family="Arial, Helvetica, sans-serif" font-size="10">&gt; E16</text>
<text x="72" y="385" fill="#ffffff" text-anchor="start" font-family="Arial, Helvetica, sans-serif" font-size="10">Aktiv 1/0</text>
<rect x="287" y="370" width="54" height="21" rx="0" fill="#303030" stroke="#505050"/>
<text x="314" y="385" fill="#b0ff00" text-anchor="middle" font-family="Arial, Helvetica, sans-serif" font-size="10">1</text>
<rect x="13" y="392" width="518" height="21" rx="0" fill="#303030" stroke="none"/>
<text x="16" y="407" fill="#a0a0a0" text-anchor="start" font-family="Arial, Helvetica, sans-serif" font-size="10">&gt; E17</text>
<text x="72" y="407" fill="#ffffff" text-anchor="start" font-family="Arial, Helvetica, sans-serif" font-size="10">SSL pruefen 1/0</text>
<rect x="287" y="392" width="54" height="21" rx="0" fill="#303030" stroke="#505050"/>
<text x="314" y="407" fill="#b0ff00" text-anchor="middle" font-family="Arial, Helvetica, sans-serif" font-size="10">0</text>
<rect x="13" y="414" width="518" height="21" rx="0" fill="#303030" stroke="none"/>
<text x="16" y="429" fill="#a0a0a0" text-anchor="start" font-family="Arial, Helvetica, sans-serif" font-size="10">&gt; E18</text>
<text x="72" y="429" fill="#ffffff" text-anchor="start" font-family="Arial, Helvetica, sans-serif" font-size="10">Senden 1=zyklisch 2=Aenderung</text>
<rect x="287" y="414" width="54" height="21" rx="0" fill="#303030" stroke="#505050"/>
<text x="314" y="429" fill="#b0ff00" text-anchor="middle" font-family="Arial, Helvetica, sans-serif" font-size="10">1</text>
<rect x="13" y="436" width="518" height="21" rx="0" fill="#303030" stroke="none"/>
<text x="16" y="451" fill="#a0a0a0" text-anchor="start" font-family="Arial, Helvetica, sans-serif" font-size="10">&gt; E19</text>
<text x="72" y="451" fill="#ffffff" text-anchor="start" font-family="Arial, Helvetica, sans-serif" font-size="10">Zykluszeit Sekunden</text>
<rect x="287" y="436" width="54" height="21" rx="0" fill="#303030" stroke="#505050"/>
<text x="314" y="451" fill="#b0ff00" text-anchor="middle" font-family="Arial, Helvetica, sans-serif" font-size="10">2</text>
<text x="15" y="476" fill="#606060" text-anchor="start" font-family="Arial, Helvetica, sans-serif" font-size="9">E:19 A:13 V:3</text>
</svg>
