<?xml version="1.0" encoding="UTF-8"?>
<svg xmlns="http://www.w3.org/2000/svg" width="516" height="382" viewBox="0 0 516 382">
<rect x="0" y="0" width="516" height="382" rx="0" fill="#f6f6f6" stroke="none"/>
<rect x="12" y="12" width="492" height="348" rx="3" fill="#797979" stroke="none"/>
<rect x="13" y="13" width="490" height="28" rx="3" fill="#ffffff" stroke="none"/>
<text x="20" y="30" fill="#000000" text-anchor="start" font-family="Arial, Helvetica, sans-serif" font-size="12">cFos Switch Writer 4fach 1.0</text>
<text x="496" y="30" fill="#707070" text-anchor="end" font-family="Arial, Helvetica, sans-serif" font-size="10">19100829</text>
<rect x="442" y="17" width="35" height="16" rx="2" fill="#ff8000" stroke="none"/>
<text x="460" y="29" fill="#000000" text-anchor="middle" font-family="Arial, Helvetica, sans-serif" font-size="9">EXEC</text>
<rect x="13" y="40" width="490" height="21" rx="0" fill="#303030" stroke="none"/>
<text x="16" y="55" fill="#a0a0a0" text-anchor="start" font-family="Arial, Helvetica, sans-serif" font-size="10">&gt; E1</text>
<text x="72" y="55" fill="#ffffff" text-anchor="start" font-family="Arial, Helvetica, sans-serif" font-size="10">IP/Host (z.B. 10.77.77.4)</text>
<rect x="259" y="40" width="54" height="21" rx="0" fill="#303030" stroke="#505050"/>
<text x="286" y="55" fill="#b0ff00" text-anchor="middle" font-family="Arial, Helvetica, sans-serif" font-size="10"></text>
<text x="444" y="55" fill="#ffffff" text-anchor="end" font-family="Arial, Helvetica, sans-serif" font-size="10">OK gesamt 1/0</text>
<text x="500" y="55" fill="#d0d0d0" text-anchor="end" font-family="Arial, Helvetica, sans-serif" font-size="10">A1 &gt;</text>
<rect x="13" y="62" width="490" height="21" rx="0" fill="#303030" stroke="none"/>
<text x="16" y="77" fill="#a0a0a0" text-anchor="start" font-family="Arial, Helvetica, sans-serif" font-size="10">&gt; E2</text>
<text x="72" y="77" fill="#ffffff" text-anchor="start" font-family="Arial, Helvetica, sans-serif" font-size="10">User</text>
<rect x="259" y="62" width="54" height="21" rx="0" fill="#303030" stroke="#505050"/>
<text x="286" y="77" fill="#b0ff00" text-anchor="middle" font-family="Arial, Helvetica, sans-serif" font-size="10"></text>
<text x="444" y="77" fill="#ffffff" text-anchor="end" font-family="Arial, Helvetica, sans-serif" font-size="10">Fehlertext gesamt</text>
<text x="500" y="77" fill="#d0d0d0" text-anchor="end" font-family="Arial, Helvetica, sans-serif" font-size="10">A2 &gt;</text>
<rect x="13" y="84" width="490" height="21" rx="0" fill="#303030" stroke="none"/>
<text x="16" y="99" fill="#a0a0a0" text-anchor="start" font-family="Arial, Helvetica, sans-serif" font-size="10">&gt; E3</text>
<text x="72" y="99" fill="#ffffff" text-anchor="start" font-family="Arial, Helvetica, sans-serif" font-size="10">Passwort</text>
<rect x="259" y="84" width="54" height="21" rx="0" fill="#303030" stroke="#505050"/>
<text x="286" y="99" fill="#b0ff00" text-anchor="middle" font-family="Arial, Helvetica, sans-serif" font-size="10"></text>
<text x="444" y="99" fill="#ffffff" text-anchor="end" font-family="Arial, Helvetica, sans-serif" font-size="10">Status Text</text>
<text x="500" y="99" fill="#d0d0d0" text-anchor="end" font-family="Arial, Helvetica, sans-serif" font-size="10">A3 &gt;</text>
<rect x="13" y="106" width="490" height="21" rx="0" fill="#303030" stroke="none"/>
<text x="16" y="121" fill="#a0a0a0" text-anchor="start" font-family="Arial, Helvetica, sans-serif" font-size="10">&gt; E4</text>
<text x="72" y="121" fill="#ffffff" text-anchor="start" font-family="Arial, Helvetica, sans-serif" font-size="10">Varname 1</text>
<rect x="259" y="106" width="54" height="21" rx="0" fill="#303030" stroke="#505050"/>
<text x="286" y="121" fill="#b0ff00" text-anchor="middle" font-family="Arial, Helvetica, sans-serif" font-size="10"></text>
<text x="444" y="121" fill="#ffffff" text-anchor="end" font-family="Arial, Helvetica, sans-serif" font-size="10">HTTP1</text>
<text x="500" y="121" fill="#d0d0d0" text-anchor="end" font-family="Arial, Helvetica, sans-serif" font-size="10">A4 &gt;</text>
<rect x="13" y="128" width="490" height="21" rx="0" fill="#303030" stroke="none"/>
<text x="16" y="143" fill="#80e000" text-anchor="start" font-family="Arial, Helvetica, sans-serif" font-size="10">&gt; E5</text>
<text x="72" y="143" fill="#ffffff" text-anchor="start" font-family="Arial, Helvetica, sans-serif" font-size="10">Wert 1 (0/1)</text>
<rect x="259" y="128" width="54" height="21" rx="0" fill="#303030" stroke="#505050"/>
<text x="286" y="143" fill="#b0ff00" text-anchor="middle" font-family="Arial, Helvetica, sans-serif" font-size="10"></text>
<text x="444" y="143" fill="#ffffff" text-anchor="end" font-family="Arial, Helvetica, sans-serif" font-size="10">HTTP2</text>
<text x="500" y="143" fill="#d0d0d0" text-anchor="end" font-family="Arial, Helvetica, sans-serif" font-size="10">A5 &gt;</text>
<rect x="13" y="150" width="490" height="21" rx="0" fill="#303030" stroke="none"/>
<text x="16" y="165" fill="#a0a0a0" text-anchor="start" font-family="Arial, Helvetica, sans-serif" font-size="10">&gt; E6</text>
<text x="72" y="165" fill="#ffffff" text-anchor="start" font-family="Arial, Helvetica, sans-serif" font-size="10">Varname 2</text>
<rect x="259" y="150" width="54" height="21" rx="0" fill="#303030" stroke="#505050"/>
<text x="286" y="165" fill="#b0ff00" text-anchor="middle" font-family="Arial, Helvetica, sans-serif" font-size="10"></text>
<text x="444" y="165" fill="#ffffff" text-anchor="end" font-family="Arial, Helvetica, sans-serif" font-size="10">HTTP3</text>
<text x="500" y="165" fill="#d0d0d0" text-anchor="end" font-family="Arial, Helvetica, sans-serif" font-size="10">A6 &gt;</text>
<rect x="13" y="172" width="490" height="21" rx="0" fill="#303030" stroke="none"/>
<text x="16" y="187" fill="#80e000" text-anchor="start" font-family="Arial, Helvetica, sans-serif" font-size="10">&gt; E7</text>
<text x="72" y="187" fill="#ffffff" text-anchor="start" font-family="Arial, Helvetica, sans-serif" font-size="10">Wert 2 (0/1)</text>
<rect x="259" y="172" width="54" height="21" rx="0" fill="#303030" stroke="#505050"/>
<text x="286" y="187" fill="#b0ff00" text-anchor="middle" font-family="Arial, Helvetica, sans-serif" font-size="10"></text>
<text x="444" y="187" fill="#ffffff" text-anchor="end" font-family="Arial, Helvetica, sans-serif" font-size="10">HTTP4</text>
<text x="500" y="187" fill="#d0d0d0" text-anchor="end" font-family="Arial, Helvetica, sans-serif" font-size="10">A7 &gt;</text>
<rect x="13" y="194" width="490" height="21" rx="0" fill="#303030" stroke="none"/>
<text x="16" y="209" fill="#a0a0a0" text-anchor="start" font-family="Arial, Helvetica, sans-serif" font-size="10">&gt; E8</text>
<text x="72" y="209" fill="#ffffff" text-anchor="start" font-family="Arial, Helvetica, sans-serif" font-size="10">Varname 3</text>
<rect x="259" y="194" width="54" height="21" rx="0" fill="#303030" stroke="#505050"/>
<text x="286" y="209" fill="#b0ff00" text-anchor="middle" font-family="Arial, Helvetica, sans-serif" font-size="10"></text>
<text x="444" y="209" fill="#ffffff" text-anchor="end" font-family="Arial, Helvetica, sans-serif" font-size="10">Letzte URL</text>
<text x="500" y="209" fill="#d0d0d0" text-anchor="end" font-family="Arial, Helvetica, sans-serif" font-size="10">A8 &gt;</text>
<rect x="13" y="216" width="490" height="21" rx="0" fill="#303030" stroke="none"/>
<text x="16" y="231" fill="#80e000" text-anchor="start" font-family="Arial, Helvetica, sans-serif" font-size="10">&gt; E9</text>
<text x="72" y="231" fill="#ffffff" text-anchor="start" font-family="Arial, Helvetica, sans-serif" font-size="10">Wert 3 (0/1)</text>
<rect x="259" y="216" width="54" height="21" rx="0" fill="#303030" stroke="#505050"/>
<text x="286" y="231" fill="#b0ff00" text-anchor="middle" font-family="Arial, Helvetica, sans-serif" font-size="10"></text>
<text x="444" y="231" fill="#ffffff" text-anchor="end" font-family="Arial, Helvetica, sans-serif" font-size="10">Antwort kurz</text>
<text x="500" y="231" fill="#d0d0d0" text-anchor="end" font-family="Arial, Helvetica, sans-serif" font-size="10">A9 &gt;</text>
<rect x="13" y="238" width="490" height="21" rx="0" fill="#303030" stroke="none"/>
<text x="16" y="253" fill="#a0a0a0" text-anchor="start" font-family="Arial, Helvetica, sans-serif" font-size="10">&gt; E10</text>
<text x="72" y="253" fill="#ffffff" text-anchor="start" font-family="Arial, Helvetica, sans-serif" font-size="10">Varname 4</text>
<rect x="259" y="238" width="54" height="21" rx="0" fill="#303030" stroke="#505050"/>
<text x="286" y="253" fill="#b0ff00" text-anchor="middle" font-family="Arial, Helvetica, sans-serif" font-size="10"></text>
<text x="444" y="253" fill="#ffffff" text-anchor="end" font-family="Arial, Helvetica, sans-serif" font-size="10">Anzahl gesendet</text>
<text x="500" y="253" fill="#d0d0d0" text-anchor="end" font-family="Arial, Helvetica, sans-serif" font-size="10">A10 &gt;</text>
<rect x="13" y="260" width="490" height="21" rx="0" fill="#303030" stroke="none"/>
<text x="16" y="275" fill="#80e000" text-anchor="start" font-family="Arial, Helvetica, sans-serif" font-size="10">&gt; E11</text>
<text x="72" y="275" fill="#ffffff" text-anchor="start" font-family="Arial, Helvetica, sans-serif" font-size="10">Wert 4 (0/1)</text>
<rect x="259" y="260" width="54" height="21" rx="0" fill="#303030" stroke="#505050"/>
<text x="286" y="275" fill="#b0ff00" text-anchor="middle" font-family="Arial, Helvetica, sans-serif" font-size="10"></text>
<text x="444" y="275" fill="#ffffff" text-anchor="end" font-family="Arial, Helvetica, sans-serif" font-size="10">Variablen Text</text>
<text x="500" y="275" fill="#d0d0d0" text-anchor="end" font-family="Arial, Helvetica, sans-serif" font-size="10">A11 &gt;</text>
<rect x="13" y="282" width="490" height="21" rx="0" fill="#303030" stroke="none"/>
<text x="16" y="297" fill="#a0a0a0" text-anchor="start" font-family="Arial, Helvetica, sans-serif" font-size="10">&gt; E12</text>
<text x="72" y="297" fill="#ffffff" text-anchor="start" font-family="Arial, Helvetica, sans-serif" font-size="10">Aktiv 1/0</text>
<rect x="259" y="282" width="54" height="21" rx="0" fill="#303030" stroke="#505050"/>
<text x="286" y="297" fill="#b0ff00" text-anchor="middle" font-family="Arial, Helvetica, sans-serif" font-size="10">1</text>
<text x="444" y="297" fill="#ffffff" text-anchor="end" font-family="Arial, Helvetica, sans-serif" font-size="10">Zeitstempel</text>
<text x="500" y="297" fill="#d0d0d0" text-anchor="end" font-family="Arial, Helvetica, sans-serif" font-size="10">A12 &gt;</text>
<rect x="13" y="304" width="490" height="21" rx="0" fill="#303030" stroke="none"/>
<text x="16" y="319" fill="#a0a0a0" text-anchor="start" font-family="Arial, Helvetica, sans-serif" font-size="10">&gt; E13</text>
<text x="72" y="319" fill="#ffffff" text-anchor="start" font-family="Arial, Helvetica, sans-serif" font-size="10">Debug 1/0</text>
<rect x="259" y="304" width="54" height="21" rx="0" fill="#303030" stroke="#505050"/>
<text x="286" y="319" fill="#b0ff00" text-anchor="middle" font-family="Arial, Helvetica, sans-serif" font-size="10">0</text>
<rect x="13" y="326" width="490" height="21" rx="0" fill="#303030" stroke="none"/>
<text x="16" y="341" fill="#a0a0a0" text-anchor="start" font-family="Arial, Helvetica, sans-serif" font-size="10">&gt; E14</text>
<text x="72" y="341" fill="#ffffff" text-anchor="start" font-family="Arial, Helvetica, sans-serif" font-size="10">SSL pruefen 1/0</text>
<rect x="259" y="326" width="54" height="21" rx="0" fill="#303030" stroke="#505050"/>
<text x="286" y="341" fill="#b0ff00" text-anchor="middle" font-family="Arial, Helvetica, sans-serif" font-size="10">0</text>
<text x="15" y="366" fill="#606060" text-anchor="start" font-family="Arial, Helvetica, sans-serif" font-size="9">E:14 A:12 V:2</text>
</svg>
