<?xml version="1.0" encoding="UTF-8"?>
<svg xmlns="http://www.w3.org/2000/svg" width="663" height="1394" viewBox="0 0 663 1394">
<rect x="0" y="0" width="663" height="1394" rx="0" fill="#f6f6f6" stroke="none"/>
<rect x="12" y="12" width="639" height="1360" rx="3" fill="#797979" stroke="none"/>
<rect x="13" y="13" width="637" height="28" rx="3" fill="#ffffff" stroke="none"/>
<text x="20" y="30" fill="#000000" text-anchor="start" font-family="Arial, Helvetica, sans-serif" font-size="12">FriWa Zählerstand auf Zirkulation und 4 Kanäle verteilen</text>
<text x="643" y="30" fill="#707070" text-anchor="end" font-family="Arial, Helvetica, sans-serif" font-size="10">19100834</text>
<rect x="13" y="40" width="637" height="21" rx="0" fill="#303030" stroke="none"/>
<text x="16" y="55" fill="#80e000" text-anchor="start" font-family="Arial, Helvetica, sans-serif" font-size="10">&gt; E1</text>
<text x="72" y="55" fill="#ffffff" text-anchor="start" font-family="Arial, Helvetica, sans-serif" font-size="10">FriWa Zaehlerstand Wh</text>
<rect x="294" y="40" width="54" height="21" rx="0" fill="#303030" stroke="#505050"/>
<text x="321" y="55" fill="#b0ff00" text-anchor="middle" font-family="Arial, Helvetica, sans-serif" font-size="10"></text>
<text x="591" y="55" fill="#ffffff" text-anchor="end" font-family="Arial, Helvetica, sans-serif" font-size="10">Gesamt gezaehlt Wh</text>
<text x="647" y="55" fill="#d0d0d0" text-anchor="end" font-family="Arial, Helvetica, sans-serif" font-size="10">A1 &gt;</text>
<rect x="13" y="62" width="637" height="21" rx="0" fill="#303030" stroke="none"/>
<text x="16" y="77" fill="#a0a0a0" text-anchor="start" font-family="Arial, Helvetica, sans-serif" font-size="10">&gt; E2</text>
<text x="72" y="77" fill="#ffffff" text-anchor="start" font-family="Arial, Helvetica, sans-serif" font-size="10">Nachlauf bis letzter Wh-Wert s</text>
<rect x="294" y="62" width="54" height="21" rx="0" fill="#303030" stroke="#505050"/>
<text x="321" y="77" fill="#b0ff00" text-anchor="middle" font-family="Arial, Helvetica, sans-serif" font-size="10">30</text>
<text x="591" y="77" fill="#ffffff" text-anchor="end" font-family="Arial, Helvetica, sans-serif" font-size="10">Letztes Delta Wh</text>
<text x="647" y="77" fill="#d0d0d0" text-anchor="end" font-family="Arial, Helvetica, sans-serif" font-size="10">A2 &gt;</text>
<rect x="13" y="84" width="637" height="21" rx="0" fill="#303030" stroke="none"/>
<text x="16" y="99" fill="#80e000" text-anchor="start" font-family="Arial, Helvetica, sans-serif" font-size="10">&gt; E3</text>
<text x="72" y="99" fill="#ffffff" text-anchor="start" font-family="Arial, Helvetica, sans-serif" font-size="10">Reset alle Zaehler</text>
<rect x="294" y="84" width="54" height="21" rx="0" fill="#303030" stroke="#505050"/>
<text x="321" y="99" fill="#b0ff00" text-anchor="middle" font-family="Arial, Helvetica, sans-serif" font-size="10"></text>
<text x="591" y="99" fill="#ffffff" text-anchor="end" font-family="Arial, Helvetica, sans-serif" font-size="10">Ruecksprung erkannt Anzahl</text>
<text x="647" y="99" fill="#d0d0d0" text-anchor="end" font-family="Arial, Helvetica, sans-serif" font-size="10">A3 &gt;</text>
<rect x="13" y="106" width="637" height="21" rx="0" fill="#303030" stroke="none"/>
<text x="16" y="121" fill="#80e000" text-anchor="start" font-family="Arial, Helvetica, sans-serif" font-size="10">&gt; E4</text>
<text x="72" y="121" fill="#ffffff" text-anchor="start" font-family="Arial, Helvetica, sans-serif" font-size="10">Reset Zaehlerstands-Referenz</text>
<rect x="294" y="106" width="54" height="21" rx="0" fill="#303030" stroke="#505050"/>
<text x="321" y="121" fill="#b0ff00" text-anchor="middle" font-family="Arial, Helvetica, sans-serif" font-size="10"></text>
<text x="591" y="121" fill="#ffffff" text-anchor="end" font-family="Arial, Helvetica, sans-serif" font-size="10">Aktiver Zaehler</text>
<text x="647" y="121" fill="#d0d0d0" text-anchor="end" font-family="Arial, Helvetica, sans-serif" font-size="10">A4 &gt;</text>
<rect x="13" y="128" width="637" height="21" rx="0" fill="#303030" stroke="none"/>
<text x="16" y="143" fill="#80e000" text-anchor="start" font-family="Arial, Helvetica, sans-serif" font-size="10">&gt; E5</text>
<text x="72" y="143" fill="#ffffff" text-anchor="start" font-family="Arial, Helvetica, sans-serif" font-size="10">Reset Restmenge</text>
<rect x="294" y="128" width="54" height="21" rx="0" fill="#303030" stroke="#505050"/>
<text x="321" y="143" fill="#b0ff00" text-anchor="middle" font-family="Arial, Helvetica, sans-serif" font-size="10"></text>
<text x="591" y="143" fill="#ffffff" text-anchor="end" font-family="Arial, Helvetica, sans-serif" font-size="10">Status</text>
<text x="647" y="143" fill="#d0d0d0" text-anchor="end" font-family="Arial, Helvetica, sans-serif" font-size="10">A5 &gt;</text>
<rect x="13" y="150" width="637" height="21" rx="0" fill="#303030" stroke="none"/>
<text x="591" y="165" fill="#ffffff" text-anchor="end" font-family="Arial, Helvetica, sans-serif" font-size="10">Debug JSON</text>
<text x="647" y="165" fill="#d0d0d0" text-anchor="end" font-family="Arial, Helvetica, sans-serif" font-size="10">A6 &gt;</text>
<rect x="13" y="172" width="637" height="21" rx="0" fill="#303030" stroke="none"/>
<rect x="13" y="194" width="637" height="21" rx="0" fill="#303030" stroke="none"/>
<rect x="13" y="216" width="637" height="21" rx="0" fill="#303030" stroke="none"/>
<rect x="13" y="238" width="637" height="21" rx="0" fill="#303030" stroke="none"/>
<text x="16" y="253" fill="#80e000" text-anchor="start" font-family="Arial, Helvetica, sans-serif" font-size="10">&gt; E10</text>
<text x="72" y="253" fill="#ffffff" text-anchor="start" font-family="Arial, Helvetica, sans-serif" font-size="10">Zirkulation Eingang</text>
<rect x="294" y="238" width="54" height="21" rx="0" fill="#303030" stroke="#505050"/>
<text x="321" y="253" fill="#b0ff00" text-anchor="middle" font-family="Arial, Helvetica, sans-serif" font-size="10"></text>
<text x="591" y="253" fill="#ffffff" text-anchor="end" font-family="Arial, Helvetica, sans-serif" font-size="10">Zirkulation kumuliert Wh</text>
<text x="647" y="253" fill="#d0d0d0" text-anchor="end" font-family="Arial, Helvetica, sans-serif" font-size="10">A10 &gt;</text>
<rect x="13" y="260" width="637" height="21" rx="0" fill="#303030" stroke="none"/>
<text x="16" y="275" fill="#a0a0a0" text-anchor="start" font-family="Arial, Helvetica, sans-serif" font-size="10">&gt; E11</text>
<text x="72" y="275" fill="#ffffff" text-anchor="start" font-family="Arial, Helvetica, sans-serif" font-size="10">Zirkulation Startwert</text>
<rect x="294" y="260" width="54" height="21" rx="0" fill="#303030" stroke="#505050"/>
<text x="321" y="275" fill="#b0ff00" text-anchor="middle" font-family="Arial, Helvetica, sans-serif" font-size="10">1</text>
<text x="591" y="275" fill="#ffffff" text-anchor="end" font-family="Arial, Helvetica, sans-serif" font-size="10">Zirkulation letzter Start-Stop Wh</text>
<text x="647" y="275" fill="#d0d0d0" text-anchor="end" font-family="Arial, Helvetica, sans-serif" font-size="10">A11 &gt;</text>
<rect x="13" y="282" width="637" height="21" rx="0" fill="#303030" stroke="none"/>
<text x="16" y="297" fill="#a0a0a0" text-anchor="start" font-family="Arial, Helvetica, sans-serif" font-size="10">&gt; E12</text>
<text x="72" y="297" fill="#ffffff" text-anchor="start" font-family="Arial, Helvetica, sans-serif" font-size="10">Zirkulation Stopwert</text>
<rect x="294" y="282" width="54" height="21" rx="0" fill="#303030" stroke="#505050"/>
<text x="321" y="297" fill="#b0ff00" text-anchor="middle" font-family="Arial, Helvetica, sans-serif" font-size="10">0</text>
<rect x="13" y="304" width="637" height="21" rx="0" fill="#303030" stroke="none"/>
<text x="16" y="319" fill="#a0a0a0" text-anchor="start" font-family="Arial, Helvetica, sans-serif" font-size="10">&gt; E13</text>
<text x="72" y="319" fill="#ffffff" text-anchor="start" font-family="Arial, Helvetica, sans-serif" font-size="10">Zirkulation live ausgeben 1/0</text>
<rect x="294" y="304" width="54" height="21" rx="0" fill="#303030" stroke="#505050"/>
<text x="321" y="319" fill="#b0ff00" text-anchor="middle" font-family="Arial, Helvetica, sans-serif" font-size="10">1</text>
<rect x="13" y="326" width="637" height="21" rx="0" fill="#303030" stroke="none"/>
<text x="16" y="341" fill="#80e000" text-anchor="start" font-family="Arial, Helvetica, sans-serif" font-size="10">&gt; E14</text>
<text x="72" y="341" fill="#ffffff" text-anchor="start" font-family="Arial, Helvetica, sans-serif" font-size="10">Reset Zirkulation</text>
<rect x="294" y="326" width="54" height="21" rx="0" fill="#303030" stroke="#505050"/>
<text x="321" y="341" fill="#b0ff00" text-anchor="middle" font-family="Arial, Helvetica, sans-serif" font-size="10"></text>
<rect x="13" y="348" width="637" height="21" rx="0" fill="#303030" stroke="none"/>
<rect x="13" y="370" width="637" height="21" rx="0" fill="#303030" stroke="none"/>
<rect x="13" y="392" width="637" height="21" rx="0" fill="#303030" stroke="none"/>
<rect x="13" y="414" width="637" height="21" rx="0" fill="#303030" stroke="none"/>
<rect x="13" y="436" width="637" height="21" rx="0" fill="#303030" stroke="none"/>
<text x="16" y="451" fill="#a0a0a0" text-anchor="start" font-family="Arial, Helvetica, sans-serif" font-size="10">&gt; E19</text>
<text x="72" y="451" fill="#ffffff" text-anchor="start" font-family="Arial, Helvetica, sans-serif" font-size="10">Name</text>
<rect x="294" y="436" width="54" height="21" rx="0" fill="#303030" stroke="#505050"/>
<text x="321" y="451" fill="#b0ff00" text-anchor="middle" font-family="Arial, Helvetica, sans-serif" font-size="10"></text>
<rect x="13" y="458" width="637" height="21" rx="0" fill="#303030" stroke="none"/>
<text x="16" y="473" fill="#80e000" text-anchor="start" font-family="Arial, Helvetica, sans-serif" font-size="10">&gt; E20</text>
<text x="72" y="473" fill="#ffffff" text-anchor="start" font-family="Arial, Helvetica, sans-serif" font-size="10">Kanal 1 Eingang</text>
<rect x="294" y="458" width="54" height="21" rx="0" fill="#303030" stroke="#505050"/>
<text x="321" y="473" fill="#b0ff00" text-anchor="middle" font-family="Arial, Helvetica, sans-serif" font-size="10"></text>
<text x="591" y="473" fill="#ffffff" text-anchor="end" font-family="Arial, Helvetica, sans-serif" font-size="10">Kanal 1 kumuliert Wh</text>
<text x="647" y="473" fill="#d0d0d0" text-anchor="end" font-family="Arial, Helvetica, sans-serif" font-size="10">A20 &gt;</text>
<rect x="13" y="480" width="637" height="21" rx="0" fill="#303030" stroke="none"/>
<text x="16" y="495" fill="#a0a0a0" text-anchor="start" font-family="Arial, Helvetica, sans-serif" font-size="10">&gt; E21</text>
<text x="72" y="495" fill="#ffffff" text-anchor="start" font-family="Arial, Helvetica, sans-serif" font-size="10">Kanal 1 Startwert</text>
<rect x="294" y="480" width="54" height="21" rx="0" fill="#303030" stroke="#505050"/>
<text x="321" y="495" fill="#b0ff00" text-anchor="middle" font-family="Arial, Helvetica, sans-serif" font-size="10">1</text>
<text x="591" y="495" fill="#ffffff" text-anchor="end" font-family="Arial, Helvetica, sans-serif" font-size="10">Kanal 1 letzter Start-Stop Wh</text>
<text x="647" y="495" fill="#d0d0d0" text-anchor="end" font-family="Arial, Helvetica, sans-serif" font-size="10">A21 &gt;</text>
<rect x="13" y="502" width="637" height="21" rx="0" fill="#303030" stroke="none"/>
<text x="16" y="517" fill="#a0a0a0" text-anchor="start" font-family="Arial, Helvetica, sans-serif" font-size="10">&gt; E22</text>
<text x="72" y="517" fill="#ffffff" text-anchor="start" font-family="Arial, Helvetica, sans-serif" font-size="10">Kanal 1 Stopwert</text>
<rect x="294" y="502" width="54" height="21" rx="0" fill="#303030" stroke="#505050"/>
<text x="321" y="517" fill="#b0ff00" text-anchor="middle" font-family="Arial, Helvetica, sans-serif" font-size="10">0</text>
<rect x="13" y="524" width="637" height="21" rx="0" fill="#303030" stroke="none"/>
<text x="16" y="539" fill="#a0a0a0" text-anchor="start" font-family="Arial, Helvetica, sans-serif" font-size="10">&gt; E23</text>
<text x="72" y="539" fill="#ffffff" text-anchor="start" font-family="Arial, Helvetica, sans-serif" font-size="10">Kanal 1 live ausgeben 1/0</text>
<rect x="294" y="524" width="54" height="21" rx="0" fill="#303030" stroke="#505050"/>
<text x="321" y="539" fill="#b0ff00" text-anchor="middle" font-family="Arial, Helvetica, sans-serif" font-size="10">1</text>
<rect x="13" y="546" width="637" height="21" rx="0" fill="#303030" stroke="none"/>
<text x="16" y="561" fill="#80e000" text-anchor="start" font-family="Arial, Helvetica, sans-serif" font-size="10">&gt; E24</text>
<text x="72" y="561" fill="#ffffff" text-anchor="start" font-family="Arial, Helvetica, sans-serif" font-size="10">Reset Kanal 1</text>
<rect x="294" y="546" width="54" height="21" rx="0" fill="#303030" stroke="#505050"/>
<text x="321" y="561" fill="#b0ff00" text-anchor="middle" font-family="Arial, Helvetica, sans-serif" font-size="10"></text>
<rect x="13" y="568" width="637" height="21" rx="0" fill="#303030" stroke="none"/>
<rect x="13" y="590" width="637" height="21" rx="0" fill="#303030" stroke="none"/>
<rect x="13" y="612" width="637" height="21" rx="0" fill="#303030" stroke="none"/>
<rect x="13" y="634" width="637" height="21" rx="0" fill="#303030" stroke="none"/>
<rect x="13" y="656" width="637" height="21" rx="0" fill="#303030" stroke="none"/>
<text x="16" y="671" fill="#a0a0a0" text-anchor="start" font-family="Arial, Helvetica, sans-serif" font-size="10">&gt; E29</text>
<text x="72" y="671" fill="#ffffff" text-anchor="start" font-family="Arial, Helvetica, sans-serif" font-size="10">Name</text>
<rect x="294" y="656" width="54" height="21" rx="0" fill="#303030" stroke="#505050"/>
<text x="321" y="671" fill="#b0ff00" text-anchor="middle" font-family="Arial, Helvetica, sans-serif" font-size="10"></text>
<rect x="13" y="678" width="637" height="21" rx="0" fill="#303030" stroke="none"/>
<text x="16" y="693" fill="#80e000" text-anchor="start" font-family="Arial, Helvetica, sans-serif" font-size="10">&gt; E30</text>
<text x="72" y="693" fill="#ffffff" text-anchor="start" font-family="Arial, Helvetica, sans-serif" font-size="10">Kanal 2 Eingang</text>
<rect x="294" y="678" width="54" height="21" rx="0" fill="#303030" stroke="#505050"/>
<text x="321" y="693" fill="#b0ff00" text-anchor="middle" font-family="Arial, Helvetica, sans-serif" font-size="10"></text>
<text x="591" y="693" fill="#ffffff" text-anchor="end" font-family="Arial, Helvetica, sans-serif" font-size="10">Kanal 2 kumuliert Wh</text>
<text x="647" y="693" fill="#d0d0d0" text-anchor="end" font-family="Arial, Helvetica, sans-serif" font-size="10">A30 &gt;</text>
<rect x="13" y="700" width="637" height="21" rx="0" fill="#303030" stroke="none"/>
<text x="16" y="715" fill="#a0a0a0" text-anchor="start" font-family="Arial, Helvetica, sans-serif" font-size="10">&gt; E31</text>
<text x="72" y="715" fill="#ffffff" text-anchor="start" font-family="Arial, Helvetica, sans-serif" font-size="10">Kanal 2 Startwert</text>
<rect x="294" y="700" width="54" height="21" rx="0" fill="#303030" stroke="#505050"/>
<text x="321" y="715" fill="#b0ff00" text-anchor="middle" font-family="Arial, Helvetica, sans-serif" font-size="10">1</text>
<text x="591" y="715" fill="#ffffff" text-anchor="end" font-family="Arial, Helvetica, sans-serif" font-size="10">Kanal 2 letzter Start-Stop Wh</text>
<text x="647" y="715" fill="#d0d0d0" text-anchor="end" font-family="Arial, Helvetica, sans-serif" font-size="10">A31 &gt;</text>
<rect x="13" y="722" width="637" height="21" rx="0" fill="#303030" stroke="none"/>
<text x="16" y="737" fill="#a0a0a0" text-anchor="start" font-family="Arial, Helvetica, sans-serif" font-size="10">&gt; E32</text>
<text x="72" y="737" fill="#ffffff" text-anchor="start" font-family="Arial, Helvetica, sans-serif" font-size="10">Kanal 2 Stopwert</text>
<rect x="294" y="722" width="54" height="21" rx="0" fill="#303030" stroke="#505050"/>
<text x="321" y="737" fill="#b0ff00" text-anchor="middle" font-family="Arial, Helvetica, sans-serif" font-size="10">0</text>
<rect x="13" y="744" width="637" height="21" rx="0" fill="#303030" stroke="none"/>
<text x="16" y="759" fill="#a0a0a0" text-anchor="start" font-family="Arial, Helvetica, sans-serif" font-size="10">&gt; E33</text>
<text x="72" y="759" fill="#ffffff" text-anchor="start" font-family="Arial, Helvetica, sans-serif" font-size="10">Kanal 2 live ausgeben 1/0</text>
<rect x="294" y="744" width="54" height="21" rx="0" fill="#303030" stroke="#505050"/>
<text x="321" y="759" fill="#b0ff00" text-anchor="middle" font-family="Arial, Helvetica, sans-serif" font-size="10">1</text>
<rect x="13" y="766" width="637" height="21" rx="0" fill="#303030" stroke="none"/>
<text x="16" y="781" fill="#80e000" text-anchor="start" font-family="Arial, Helvetica, sans-serif" font-size="10">&gt; E34</text>
<text x="72" y="781" fill="#ffffff" text-anchor="start" font-family="Arial, Helvetica, sans-serif" font-size="10">Reset Kanal 2</text>
<rect x="294" y="766" width="54" height="21" rx="0" fill="#303030" stroke="#505050"/>
<text x="321" y="781" fill="#b0ff00" text-anchor="middle" font-family="Arial, Helvetica, sans-serif" font-size="10"></text>
<rect x="13" y="788" width="637" height="21" rx="0" fill="#303030" stroke="none"/>
<rect x="13" y="810" width="637" height="21" rx="0" fill="#303030" stroke="none"/>
<rect x="13" y="832" width="637" height="21" rx="0" fill="#303030" stroke="none"/>
<rect x="13" y="854" width="637" height="21" rx="0" fill="#303030" stroke="none"/>
<rect x="13" y="876" width="637" height="21" rx="0" fill="#303030" stroke="none"/>
<text x="16" y="891" fill="#a0a0a0" text-anchor="start" font-family="Arial, Helvetica, sans-serif" font-size="10">&gt; E39</text>
<text x="72" y="891" fill="#ffffff" text-anchor="start" font-family="Arial, Helvetica, sans-serif" font-size="10">Name</text>
<rect x="294" y="876" width="54" height="21" rx="0" fill="#303030" stroke="#505050"/>
<text x="321" y="891" fill="#b0ff00" text-anchor="middle" font-family="Arial, Helvetica, sans-serif" font-size="10"></text>
<rect x="13" y="898" width="637" height="21" rx="0" fill="#303030" stroke="none"/>
<text x="16" y="913" fill="#80e000" text-anchor="start" font-family="Arial, Helvetica, sans-serif" font-size="10">&gt; E40</text>
<text x="72" y="913" fill="#ffffff" text-anchor="start" font-family="Arial, Helvetica, sans-serif" font-size="10">Kanal 3 Eingang</text>
<rect x="294" y="898" width="54" height="21" rx="0" fill="#303030" stroke="#505050"/>
<text x="321" y="913" fill="#b0ff00" text-anchor="middle" font-family="Arial, Helvetica, sans-serif" font-size="10"></text>
<text x="591" y="913" fill="#ffffff" text-anchor="end" font-family="Arial, Helvetica, sans-serif" font-size="10">Kanal 3 kumuliert Wh</text>
<text x="647" y="913" fill="#d0d0d0" text-anchor="end" font-family="Arial, Helvetica, sans-serif" font-size="10">A40 &gt;</text>
<rect x="13" y="920" width="637" height="21" rx="0" fill="#303030" stroke="none"/>
<text x="16" y="935" fill="#a0a0a0" text-anchor="start" font-family="Arial, Helvetica, sans-serif" font-size="10">&gt; E41</text>
<text x="72" y="935" fill="#ffffff" text-anchor="start" font-family="Arial, Helvetica, sans-serif" font-size="10">Kanal 3 Startwert</text>
<rect x="294" y="920" width="54" height="21" rx="0" fill="#303030" stroke="#505050"/>
<text x="321" y="935" fill="#b0ff00" text-anchor="middle" font-family="Arial, Helvetica, sans-serif" font-size="10">1</text>
<text x="591" y="935" fill="#ffffff" text-anchor="end" font-family="Arial, Helvetica, sans-serif" font-size="10">Kanal 3 letzter Start-Stop Wh</text>
<text x="647" y="935" fill="#d0d0d0" text-anchor="end" font-family="Arial, Helvetica, sans-serif" font-size="10">A41 &gt;</text>
<rect x="13" y="942" width="637" height="21" rx="0" fill="#303030" stroke="none"/>
<text x="16" y="957" fill="#a0a0a0" text-anchor="start" font-family="Arial, Helvetica, sans-serif" font-size="10">&gt; E42</text>
<text x="72" y="957" fill="#ffffff" text-anchor="start" font-family="Arial, Helvetica, sans-serif" font-size="10">Kanal 3 Stopwert</text>
<rect x="294" y="942" width="54" height="21" rx="0" fill="#303030" stroke="#505050"/>
<text x="321" y="957" fill="#b0ff00" text-anchor="middle" font-family="Arial, Helvetica, sans-serif" font-size="10">0</text>
<rect x="13" y="964" width="637" height="21" rx="0" fill="#303030" stroke="none"/>
<text x="16" y="979" fill="#a0a0a0" text-anchor="start" font-family="Arial, Helvetica, sans-serif" font-size="10">&gt; E43</text>
<text x="72" y="979" fill="#ffffff" text-anchor="start" font-family="Arial, Helvetica, sans-serif" font-size="10">Kanal 3 live ausgeben 1/0</text>
<rect x="294" y="964" width="54" height="21" rx="0" fill="#303030" stroke="#505050"/>
<text x="321" y="979" fill="#b0ff00" text-anchor="middle" font-family="Arial, Helvetica, sans-serif" font-size="10">1</text>
<rect x="13" y="986" width="637" height="21" rx="0" fill="#303030" stroke="none"/>
<text x="16" y="1001" fill="#80e000" text-anchor="start" font-family="Arial, Helvetica, sans-serif" font-size="10">&gt; E44</text>
<text x="72" y="1001" fill="#ffffff" text-anchor="start" font-family="Arial, Helvetica, sans-serif" font-size="10">Reset Kanal 3</text>
<rect x="294" y="986" width="54" height="21" rx="0" fill="#303030" stroke="#505050"/>
<text x="321" y="1001" fill="#b0ff00" text-anchor="middle" font-family="Arial, Helvetica, sans-serif" font-size="10"></text>
<rect x="13" y="1008" width="637" height="21" rx="0" fill="#303030" stroke="none"/>
<rect x="13" y="1030" width="637" height="21" rx="0" fill="#303030" stroke="none"/>
<rect x="13" y="1052" width="637" height="21" rx="0" fill="#303030" stroke="none"/>
<rect x="13" y="1074" width="637" height="21" rx="0" fill="#303030" stroke="none"/>
<rect x="13" y="1096" width="637" height="21" rx="0" fill="#303030" stroke="none"/>
<text x="16" y="1111" fill="#a0a0a0" text-anchor="start" font-family="Arial, Helvetica, sans-serif" font-size="10">&gt; E49</text>
<text x="72" y="1111" fill="#ffffff" text-anchor="start" font-family="Arial, Helvetica, sans-serif" font-size="10">Name</text>
<rect x="294" y="1096" width="54" height="21" rx="0" fill="#303030" stroke="#505050"/>
<text x="321" y="1111" fill="#b0ff00" text-anchor="middle" font-family="Arial, Helvetica, sans-serif" font-size="10"></text>
<rect x="13" y="1118" width="637" height="21" rx="0" fill="#303030" stroke="none"/>
<text x="16" y="1133" fill="#80e000" text-anchor="start" font-family="Arial, Helvetica, sans-serif" font-size="10">&gt; E50</text>
<text x="72" y="1133" fill="#ffffff" text-anchor="start" font-family="Arial, Helvetica, sans-serif" font-size="10">Kanal 4 Eingang</text>
<rect x="294" y="1118" width="54" height="21" rx="0" fill="#303030" stroke="#505050"/>
<text x="321" y="1133" fill="#b0ff00" text-anchor="middle" font-family="Arial, Helvetica, sans-serif" font-size="10"></text>
<text x="591" y="1133" fill="#ffffff" text-anchor="end" font-family="Arial, Helvetica, sans-serif" font-size="10">Kanal 4 kumuliert Wh</text>
<text x="647" y="1133" fill="#d0d0d0" text-anchor="end" font-family="Arial, Helvetica, sans-serif" font-size="10">A50 &gt;</text>
<rect x="13" y="1140" width="637" height="21" rx="0" fill="#303030" stroke="none"/>
<text x="16" y="1155" fill="#a0a0a0" text-anchor="start" font-family="Arial, Helvetica, sans-serif" font-size="10">&gt; E51</text>
<text x="72" y="1155" fill="#ffffff" text-anchor="start" font-family="Arial, Helvetica, sans-serif" font-size="10">Kanal 4 Startwert</text>
<rect x="294" y="1140" width="54" height="21" rx="0" fill="#303030" stroke="#505050"/>
<text x="321" y="1155" fill="#b0ff00" text-anchor="middle" font-family="Arial, Helvetica, sans-serif" font-size="10">1</text>
<text x="591" y="1155" fill="#ffffff" text-anchor="end" font-family="Arial, Helvetica, sans-serif" font-size="10">Kanal 4 letzter Start-Stop Wh</text>
<text x="647" y="1155" fill="#d0d0d0" text-anchor="end" font-family="Arial, Helvetica, sans-serif" font-size="10">A51 &gt;</text>
<rect x="13" y="1162" width="637" height="21" rx="0" fill="#303030" stroke="none"/>
<text x="16" y="1177" fill="#a0a0a0" text-anchor="start" font-family="Arial, Helvetica, sans-serif" font-size="10">&gt; E52</text>
<text x="72" y="1177" fill="#ffffff" text-anchor="start" font-family="Arial, Helvetica, sans-serif" font-size="10">Kanal 4 Stopwert</text>
<rect x="294" y="1162" width="54" height="21" rx="0" fill="#303030" stroke="#505050"/>
<text x="321" y="1177" fill="#b0ff00" text-anchor="middle" font-family="Arial, Helvetica, sans-serif" font-size="10">0</text>
<rect x="13" y="1184" width="637" height="21" rx="0" fill="#303030" stroke="none"/>
<text x="16" y="1199" fill="#a0a0a0" text-anchor="start" font-family="Arial, Helvetica, sans-serif" font-size="10">&gt; E53</text>
<text x="72" y="1199" fill="#ffffff" text-anchor="start" font-family="Arial, Helvetica, sans-serif" font-size="10">Kanal 4 live ausgeben 1/0</text>
<rect x="294" y="1184" width="54" height="21" rx="0" fill="#303030" stroke="#505050"/>
<text x="321" y="1199" fill="#b0ff00" text-anchor="middle" font-family="Arial, Helvetica, sans-serif" font-size="10">1</text>
<rect x="13" y="1206" width="637" height="21" rx="0" fill="#303030" stroke="none"/>
<text x="16" y="1221" fill="#80e000" text-anchor="start" font-family="Arial, Helvetica, sans-serif" font-size="10">&gt; E54</text>
<text x="72" y="1221" fill="#ffffff" text-anchor="start" font-family="Arial, Helvetica, sans-serif" font-size="10">Reset Kanal 4</text>
<rect x="294" y="1206" width="54" height="21" rx="0" fill="#303030" stroke="#505050"/>
<text x="321" y="1221" fill="#b0ff00" text-anchor="middle" font-family="Arial, Helvetica, sans-serif" font-size="10"></text>
<rect x="13" y="1228" width="637" height="21" rx="0" fill="#303030" stroke="none"/>
<rect x="13" y="1250" width="637" height="21" rx="0" fill="#303030" stroke="none"/>
<rect x="13" y="1272" width="637" height="21" rx="0" fill="#303030" stroke="none"/>
<rect x="13" y="1294" width="637" height="21" rx="0" fill="#303030" stroke="none"/>
<rect x="13" y="1316" width="637" height="21" rx="0" fill="#303030" stroke="none"/>
<rect x="13" y="1338" width="637" height="21" rx="0" fill="#303030" stroke="none"/>
<text x="591" y="1353" fill="#ffffff" text-anchor="end" font-family="Arial, Helvetica, sans-serif" font-size="10">Restmenge kumuliert Wh</text>
<text x="647" y="1353" fill="#d0d0d0" text-anchor="end" font-family="Arial, Helvetica, sans-serif" font-size="10">A60 &gt;</text>
<text x="15" y="1378" fill="#606060" text-anchor="start" font-family="Arial, Helvetica, sans-serif" font-size="9">E:34 A:17 V:51</text>
</svg>
